<svg width="22" height="22" viewBox="0 0 22 22" fill="none" xmlns="http://www.w3.org/2000/svg">
<g clip-path="url(#clip0_674_2328)">
<path d="M10.353 6.73363L12.4258 7.27981C12.4962 7.29627 12.5592 7.33552 12.605 7.39147C12.6508 7.44741 12.6768 7.51692 12.679 7.58918C12.679 7.76488 12.5228 7.91001 12.3307 7.91001H10.971C10.8244 7.90959 10.6794 7.88107 10.5436 7.82599C10.3434 7.74196 10.1127 7.76106 9.9592 7.90238L9.23351 8.57078C9.19994 8.60016 9.17098 8.6344 9.14757 8.67238C9.11761 8.72152 9.09767 8.77611 9.08891 8.83299C9.08014 8.88988 9.08272 8.94794 9.09649 9.00382C9.11027 9.05971 9.13497 9.11231 9.16917 9.15861C9.20337 9.2049 9.2464 9.24397 9.29576 9.27356C9.69765 9.51475 10.1476 9.66469 10.6139 9.71279V10.3888C10.6139 10.7249 10.9129 10.9999 11.2773 10.9999H11.9407C12.3055 10.9999 12.6046 10.7249 12.6046 10.3888V9.71661C13.8623 9.57911 14.8137 8.53258 14.648 7.31036C14.5276 6.43189 13.7901 5.73293 12.8696 5.48849L10.7968 4.94231C10.7264 4.92584 10.6634 4.88659 10.6176 4.83065C10.5718 4.7747 10.5458 4.70519 10.5436 4.63293C10.5436 4.45724 10.6998 4.3121 10.8919 4.3121H12.2516C12.3987 4.31233 12.5443 4.34085 12.6806 4.39613C12.8803 4.48015 13.1114 4.46106 13.2649 4.31974L13.9906 3.65133C14.0231 3.62258 14.051 3.5891 14.0735 3.55203C14.1037 3.5029 14.1239 3.44827 14.1329 3.3913C14.1419 3.33433 14.1395 3.27614 14.1258 3.2201C14.1122 3.16406 14.0876 3.11127 14.0534 3.0648C14.0193 3.01832 13.9763 2.97907 13.9268 2.94932C13.5248 2.70814 13.0747 2.55819 12.6084 2.51008V1.83328C12.6084 1.49717 12.3097 1.22217 11.9449 1.22217H11.2815C10.9167 1.22217 10.6181 1.49717 10.6181 1.83328V2.5055C9.36184 2.643 8.40851 3.68953 8.57427 4.91175C8.6942 5.79022 9.43403 6.48918 10.353 6.73363ZM21.5902 13.7538C21.1395 13.3451 20.4367 13.3718 19.9631 13.7538L16.4339 16.5763C16.0007 16.9239 15.4615 17.1126 14.9061 17.1111H10.3889C10.2268 17.1111 10.0714 17.0467 9.95677 16.9321C9.84216 16.8175 9.77778 16.662 9.77778 16.4999C9.77778 16.3379 9.84216 16.1824 9.95677 16.0678C10.0714 15.9532 10.2268 15.8888 10.3889 15.8888H13.3791C13.9864 15.8888 14.5521 15.4725 14.6491 14.8729C14.6611 14.804 14.6669 14.7342 14.6667 14.6643C14.6661 14.3406 14.537 14.0303 14.3079 13.8016C14.0787 13.5728 13.7682 13.4444 13.4444 13.4444H7.33333C6.3027 13.4447 5.30347 13.7992 4.50313 14.4485L2.72708 15.8888H0.611111C0.449034 15.8888 0.293596 15.9532 0.17899 16.0678C0.0643848 16.1824 0 16.3379 0 16.4999L0 20.1666C0 20.3287 0.0643848 20.4841 0.17899 20.5987C0.293596 20.7133 0.449034 20.7777 0.611111 20.7777H14.2377C14.793 20.7782 15.3318 20.5896 15.7655 20.243L21.5417 15.6215C21.6806 15.5103 21.7936 15.3702 21.8728 15.2109C21.952 15.0515 21.9954 14.8768 22.0001 14.699C22.0047 14.5211 21.9705 14.3444 21.8998 14.1811C21.829 14.0179 21.7235 13.872 21.5906 13.7538H21.5902Z" fill="white"/>
<path d="M20.4284 3.1428H18.8569V1.57137C18.8569 1.37855 18.7005 1.22217 18.5077 1.22217H18.1585C17.9657 1.22217 17.8093 1.37855 17.8093 1.57137V3.1428H16.2379C16.0451 3.1428 15.8887 3.29918 15.8887 3.49201V3.84122C15.8887 4.03404 16.0451 4.19042 16.2379 4.19042H17.8093V5.76185C17.8093 5.95468 17.9657 6.11106 18.1585 6.11106H18.5077C18.7005 6.11106 18.8569 5.95468 18.8569 5.76185V4.19042H20.4284C20.6212 4.19042 20.7776 4.03404 20.7776 3.84122V3.49201C20.7776 3.29918 20.6212 3.1428 20.4284 3.1428Z" fill="white"/>
</g>
<defs>
<clipPath id="clip0_674_2328">
<rect width="22" height="22" fill="white"/>
</clipPath>
</defs>
</svg>
