<svg width="147" height="79" viewBox="0 0 147 79" fill="none" xmlns="http://www.w3.org/2000/svg">
<path d="M13.5 61V25.6H2.4V17.2H33.6V25.6H22.5V61H13.5Z" fill="black"/>
<path d="M48.24 61.6C45.32 61.6 42.76 61.06 40.56 59.98C38.36 58.86 36.64 57.32 35.4 55.36C34.2 53.36 33.6 51.04 33.6 48.4V29.8C33.6 27.12 34.2 24.8 35.4 22.84C36.64 20.88 38.36 19.36 40.56 18.28C42.76 17.16 45.32 16.6 48.24 16.6C51.2 16.6 53.76 17.16 55.92 18.28C58.12 19.36 59.82 20.88 61.02 22.84C62.26 24.8 62.88 27.12 62.88 29.8H53.88C53.88 28.04 53.38 26.7 52.38 25.78C51.42 24.86 50.04 24.4 48.24 24.4C46.44 24.4 45.04 24.86 44.04 25.78C43.08 26.7 42.6 28.04 42.6 29.8V48.4C42.6 50.12 43.08 51.46 44.04 52.42C45.04 53.34 46.44 53.8 48.24 53.8C50.04 53.8 51.42 53.34 52.38 52.42C53.38 51.46 53.88 50.12 53.88 48.4H62.88C62.88 51.04 62.26 53.36 61.02 55.36C59.82 57.32 58.12 58.86 55.92 59.98C53.76 61.06 51.2 61.6 48.24 61.6Z" fill="black"/>
<path d="M68.24 61.6C65.32 61.6 62.76 61.06 60.56 59.98C58.36 58.86 56.64 57.32 55.4 55.36C54.2 53.36 53.6 51.04 53.6 48.4V29.8C53.6 27.12 54.2 24.8 55.4 22.84C56.64 20.88 58.36 19.36 60.56 18.28C62.76 17.16 65.32 16.6 68.24 16.6C71.2 16.6 73.76 17.16 75.92 18.28C78.12 19.36 79.82 20.88 81.02 22.84C82.26 24.8 82.88 27.12 82.88 29.8H73.88C73.88 28.04 73.38 26.7 72.38 25.78C71.42 24.86 70.04 24.4 68.24 24.4C66.44 24.4 65.04 24.86 64.04 25.78C63.08 26.7 62.6 28.04 62.6 29.8V48.4C62.6 50.12 63.08 51.46 64.04 52.42C65.04 53.34 66.44 53.8 68.24 53.8C70.04 53.8 71.42 53.34 72.38 52.42C73.38 51.46 73.88 50.12 73.88 48.4H82.88C82.88 51.04 82.26 53.36 81.02 55.36C79.82 57.32 78.12 58.86 75.92 59.98C73.76 61.06 71.2 61.6 68.24 61.6Z" fill="black"/>
<path d="M90.2 61V17.2H118.4V25.6H99.08V35.32H116.84V43.72H99.2V61H90.2Z" fill="black"/>
<path d="M112.5 61L123.24 17.2H134.64L145.5 61H136.32L134.22 51.1H123.78L121.68 61H112.5ZM125.28 43.9H132.66L130.56 33.34C130.28 31.82 129.98 30.32 129.66 28.84C129.38 27.32 129.16 26.14 129 25.3C128.84 26.14 128.62 27.3 128.34 28.78C128.1 30.26 127.82 31.76 127.5 33.28L125.28 43.9Z" fill="black"/>
</svg>
